<svg width="19" height="19" viewBox="0 0 19 19" fill="none" xmlns="http://www.w3.org/2000/svg">
<path d="M15.6514 17.7772L12.1291 14.2895C11.9701 14.1321 11.8811 13.9181 11.88 13.6931L11.8771 13.12C10.6411 14.0966 9.08325 14.6811 7.38539 14.6896C3.34638 14.71 0.0572031 11.4532 0.0368481 7.41353C0.0164931 3.37383 3.27269 0.0840957 7.31169 0.0637441C11.3507 0.0433926 14.6399 3.30015 14.6602 7.33984C14.6688 9.03799 14.1002 10.6019 13.1362 11.8479L13.7092 11.845C13.9342 11.8439 14.149 11.9307 14.308 12.0881L17.8304 15.5758C18.1625 15.9046 18.1652 16.439 17.8364 16.7676L16.8466 17.7676C16.5178 18.0998 15.9835 18.1025 15.6514 17.7772ZM11.848 7.35401C11.8355 4.86832 9.81465 2.86387 7.32587 2.87641C4.84059 2.88888894 2.8365 4.91014 2.84904 7.39936C2.86156 9.88505 4.88243 11.8895 7.37122 11.877C9.85649 11.8644 11.8606 9.84323 11.848 7.35401Z" fill="white"/>
</svg>
